<svg xmlns="http://www.w3.org/2000/svg" width="1455" height="854" viewBox="0 0 1455 854" fill="none">
<g opacity="0.1" clip-path="url(#clip0_15910_6388)">
<mask id="mask0_15910_6388" style="mask-type:alpha" maskUnits="userSpaceOnUse" x="-53" y="-82" width="960" height="960">
<rect width="688" height="688" transform="translate(83 -68)" fill="url(#paint0_radial_15910_6388)"/>
</mask>
<g mask="url(#mask0_15910_6388)">
<g clip-path="url(#clip1_15910_6388)">
<line x1="27.5" y1="-82" x2="27.5" y2="878" stroke="#1C1817"/>
<line x1="107.5" y1="-82" x2="107.5" y2="878" stroke="#1C1817"/>
<line x1="187.5" y1="-82" x2="187.5" y2="878" stroke="#1C1817"/>
<line x1="267.5" y1="-82" x2="267.5" y2="878" stroke="#1C1817"/>
<line x1="347.5" y1="-82" x2="347.5" y2="878" stroke="#1C1817"/>
<line x1="427.5" y1="-82" x2="427.5" y2="878" stroke="#1C1817"/>
<line x1="507.5" y1="-82" x2="507.5" y2="878" stroke="#1C1817"/>
<line x1="587.5" y1="-82" x2="587.5" y2="878" stroke="#1C1817"/>
<line x1="667.5" y1="-82" x2="667.5" y2="878" stroke="#1C1817"/>
<line x1="747.5" y1="-82" x2="747.5" y2="878" stroke="#1C1817"/>
<line x1="827.5" y1="-82" x2="827.5" y2="878" stroke="#1C1817"/>
</g>
<g clip-path="url(#clip2_15910_6388)">
<line x1="-53" y1="77.5" x2="907" y2="77.5" stroke="#1C1817"/>
<line x1="-53" y1="157.5" x2="907" y2="157.5" stroke="#1C1817"/>
<line x1="-53" y1="237.5" x2="907" y2="237.5" stroke="#1C1817"/>
<line x1="-53" y1="317.5" x2="907" y2="317.5" stroke="#1C1817"/>
<line x1="-53" y1="397.5" x2="907" y2="397.5" stroke="#1C1817"/>
<line x1="-53" y1="477.5" x2="907" y2="477.5" stroke="#1C1817"/>
<line x1="-53" y1="557.5" x2="907" y2="557.5" stroke="#1C1817"/>
<line x1="-53" y1="637.5" x2="907" y2="637.5" stroke="#1C1817"/>
<line x1="-53" y1="717.5" x2="907" y2="717.5" stroke="#1C1817"/>
</g>
</g>
</g>
<g opacity="0.1" clip-path="url(#clip3_15910_6388)">
<mask id="mask1_15910_6388" style="mask-type:alpha" maskUnits="userSpaceOnUse" x="548" y="0" width="960" height="960">
<rect width="688" height="688" transform="translate(684 14)" fill="url(#paint1_radial_15910_6388)"/>
</mask>
<g mask="url(#mask1_15910_6388)">
<g clip-path="url(#clip4_15910_6388)">
<line x1="628.5" x2="628.5" y2="960" stroke="#1C1817"/>
<line x1="708.5" x2="708.5" y2="960" stroke="#1C1817"/>
<line x1="788.5" x2="788.5" y2="960" stroke="#1C1817"/>
<line x1="868.5" x2="868.5" y2="960" stroke="#1C1817"/>
<line x1="948.5" x2="948.5" y2="960" stroke="#1C1817"/>
<line x1="1028.5" x2="1028.5" y2="960" stroke="#1C1817"/>
<line x1="1108.5" x2="1108.5" y2="960" stroke="#1C1817"/>
<line x1="1188.5" x2="1188.5" y2="960" stroke="#1C1817"/>
<line x1="1268.5" x2="1268.5" y2="960" stroke="#1C1817"/>
<line x1="1348.5" x2="1348.5" y2="960" stroke="#1C1817"/>
<line x1="1428.5" x2="1428.5" y2="960" stroke="#1C1817"/>
</g>
<g clip-path="url(#clip5_15910_6388)">
<line x1="548" y1="79.5" x2="1508" y2="79.5" stroke="#1C1817"/>
<line x1="548" y1="159.5" x2="1508" y2="159.5" stroke="#1C1817"/>
<line x1="548" y1="239.5" x2="1508" y2="239.5" stroke="#1C1817"/>
<line x1="548" y1="319.5" x2="1508" y2="319.5" stroke="#1C1817"/>
<line x1="548" y1="399.5" x2="1508" y2="399.5" stroke="#1C1817"/>
<line x1="548" y1="479.5" x2="1508" y2="479.5" stroke="#1C1817"/>
<line x1="548" y1="559.5" x2="1508" y2="559.5" stroke="#1C1817"/>
<line x1="548" y1="639.5" x2="1508" y2="639.5" stroke="#1C1817"/>
<line x1="548" y1="719.5" x2="1508" y2="719.5" stroke="#1C1817"/>
<line x1="548" y1="799.5" x2="1508" y2="799.5" stroke="#1C1817"/>
</g>
</g>
</g>
<defs>
<radialGradient id="paint0_radial_15910_6388" cx="0" cy="0" r="1" gradientUnits="userSpaceOnUse" gradientTransform="translate(344 -8.2016e-05) rotate(90) scale(688 359.092)">
<stop/>
<stop offset="0.953125" stop-opacity="0"/>
</radialGradient>
<radialGradient id="paint1_radial_15910_6388" cx="0" cy="0" r="1" gradientUnits="userSpaceOnUse" gradientTransform="translate(344 -8.2016e-05) rotate(90) scale(688 359.092)">
<stop/>
<stop offset="0.953125" stop-opacity="0"/>
</radialGradient>
<clipPath id="clip0_15910_6388">
<rect width="854" height="854" fill="white" transform="translate(0 -82)"/>
</clipPath>
<clipPath id="clip1_15910_6388">
<rect width="960" height="960" fill="white" transform="translate(-53 -82)"/>
</clipPath>
<clipPath id="clip2_15910_6388">
<rect width="960" height="960" fill="white" transform="translate(-53 -82)"/>
</clipPath>
<clipPath id="clip3_15910_6388">
<rect width="854" height="854" fill="white" transform="translate(601)"/>
</clipPath>
<clipPath id="clip4_15910_6388">
<rect width="960" height="960" fill="white" transform="translate(548)"/>
</clipPath>
<clipPath id="clip5_15910_6388">
<rect width="960" height="960" fill="white" transform="translate(548)"/>
</clipPath>
</defs>
</svg>